<?xml version="1.0" encoding="UTF-8" standalone="no"?>
<!-- Creator: CorelDRAW X6 -->

<svg
   xml:space="preserve"
   width="75.3352mm"
   height="118.025mm"
   version="1.1"
   style="shape-rendering:geometricPrecision; text-rendering:geometricPrecision; image-rendering:optimizeQuality; fill-rule:evenodd; clip-rule:evenodd"
   viewBox="0 0 6142 9623"
   id="svg69"
   sodipodi:docname="heliponto.svg"
   inkscape:version="1.1 (c4e8f9e, 2021-05-24)"
   xmlns:inkscape="http://www.inkscape.org/namespaces/inkscape"
   xmlns:sodipodi="http://sodipodi.sourceforge.net/DTD/sodipodi-0.dtd"
   xmlns="http://www.w3.org/2000/svg"
   xmlns:svg="http://www.w3.org/2000/svg"><sodipodi:namedview
   id="namedview71"
   pagecolor="#ffffff"
   bordercolor="#666666"
   borderopacity="1.0"
   inkscape:pageshadow="2"
   inkscape:pageopacity="0.0"
   inkscape:pagecheckerboard="0"
   inkscape:document-units="mm"
   showgrid="false"
   inkscape:zoom="1.262109"
   inkscape:cx="142.22226"
   inkscape:cy="223.03937"
   inkscape:window-width="1440"
   inkscape:window-height="789"
   inkscape:window-x="0"
   inkscape:window-y="25"
   inkscape:window-maximized="0"
   inkscape:current-layer="Camada_x0020_1" />
 <defs
   id="defs59">
  <style
   type="text/css"
   id="style57">
   <![CDATA[
    .fil0 {fill:#116E7F}
    .fil1 {fill:#17A2B8}
   ]]>
  </style>
 </defs>
 <g
   id="Camada_x0020_1"
   inkscape:label="Camada 1">
  <metadata
   id="CorelCorpID_0Corel-Layer" />
  <path
   class="fil0"
   d="M2927 9623l288 0c59,-254 771,-1587 944,-1936 69,-140 129,-234 200,-376l496 -968c37,-74 59,-119 96,-192l592 -1160c398,-796 600,-1041 600,-2016 0,-1032 -539,-1853 -1227,-2372 -409,-309 -1020,-603 -1556,-603 -756,0 -1284,33 -1920,456 -928,617 -1316,1379 -1436,2428 -14,124 53,779 75,878 72,336 162,444 272,712 114,277 486,943 650,1270l1623 3200c82,164 300,482 304,680z"
   id="path62" />
  <path
   class="fil1"
   d="M3077 9157l1218 -2366c207,-400 398,-784 609,-1190 207,-397 409,-783 609,-1190 247,-502 353,-811 336,-1459 -16,-571 -165,-982 -420,-1374 -275,-424 -483,-622 -908,-893 -1232,-784 -2961,-411 -3775,854 -536,833 -623,1911 -119,2848 392,728 2247,4473 2450,4770z"
   id="path64" />
  
 <g
   id="g1500"
   transform="matrix(10.5387,0,0,10.5387,-2137.5611,259.67146)"
   style="fill:#ffffff;fill-opacity:1"><circle
     style="fill:#ffffff;fill-opacity:1;stroke-width:2.24449"
     id="path6308"
     cx="494.30054"
     cy="273.78363"
     r="202.73329" /></g><text
   xml:space="preserve"
   style="font-style:normal;font-weight:normal;font-size:3460.15px;line-height:1.25;font-family:sans-serif;clip-rule:evenodd;fill:#17a2b8;fill-opacity:1;fill-rule:evenodd;stroke:none;stroke-width:18.0217;image-rendering:optimizeQuality;shape-rendering:geometricPrecision;text-rendering:geometricPrecision"
   x="1666.1001"
   y="4402.8472"
   id="text2310"><tspan
     sodipodi:role="line"
     id="tspan2308"
     style="font-style:normal;font-variant:normal;font-weight:bold;font-stretch:normal;font-size:3460.15px;font-family:sans-serif;-inkscape-font-specification:'sans-serif, Bold';font-variant-ligatures:normal;font-variant-caps:normal;font-variant-numeric:normal;font-variant-east-asian:normal;fill:#17a2b8;fill-opacity:1;stroke-width:18.0217"
     x="1666.1001"
     y="4402.8472">H</tspan></text></g>
</svg>
