<?xml version="1.0" encoding="UTF-8" standalone="no"?>
<!-- Creator: CorelDRAW X6 -->

<svg
   xml:space="preserve"
   width="75.3352mm"
   height="118.025mm"
   version="1.1"
   style="shape-rendering:geometricPrecision; text-rendering:geometricPrecision; image-rendering:optimizeQuality; fill-rule:evenodd; clip-rule:evenodd"
   viewBox="0 0 6142 9623"
   id="svg69"
   sodipodi:docname="publico.svg"
   inkscape:version="1.1 (c4e8f9e, 2021-05-24)"
   xmlns:inkscape="http://www.inkscape.org/namespaces/inkscape"
   xmlns:sodipodi="http://sodipodi.sourceforge.net/DTD/sodipodi-0.dtd"
   xmlns="http://www.w3.org/2000/svg"
   xmlns:svg="http://www.w3.org/2000/svg"><sodipodi:namedview
   id="namedview71"
   pagecolor="#ffffff"
   bordercolor="#666666"
   borderopacity="1.0"
   inkscape:pageshadow="2"
   inkscape:pageopacity="0.0"
   inkscape:pagecheckerboard="0"
   inkscape:document-units="mm"
   showgrid="false"
   inkscape:zoom="1.262109"
   inkscape:cx="13.073356"
   inkscape:cy="223.03937"
   inkscape:window-width="1440"
   inkscape:window-height="789"
   inkscape:window-x="0"
   inkscape:window-y="25"
   inkscape:window-maximized="0"
   inkscape:current-layer="Camada_x0020_1" />
 <defs
   id="defs59">
  <style
   type="text/css"
   id="style57">
   <![CDATA[
    .fil0 {fill:#116E7F}
    .fil1 {fill:#17A2B8}
   ]]>
  </style>
 </defs>
 <g
   id="Camada_x0020_1"
   inkscape:label="Camada 1">
  <metadata
   id="CorelCorpID_0Corel-Layer" />
  <path
   class="fil0"
   d="M2927 9623l288 0c59,-254 771,-1587 944,-1936 69,-140 129,-234 200,-376l496 -968c37,-74 59,-119 96,-192l592 -1160c398,-796 600,-1041 600,-2016 0,-1032 -539,-1853 -1227,-2372 -409,-309 -1020,-603 -1556,-603 -756,0 -1284,33 -1920,456 -928,617 -1316,1379 -1436,2428 -14,124 53,779 75,878 72,336 162,444 272,712 114,277 486,943 650,1270l1623 3200c82,164 300,482 304,680z"
   id="path62" />
  <path
   class="fil1"
   d="M3077 9157l1218 -2366c207,-400 398,-784 609,-1190 207,-397 409,-783 609,-1190 247,-502 353,-811 336,-1459 -16,-571 -165,-982 -420,-1374 -275,-424 -483,-622 -908,-893 -1232,-784 -2961,-411 -3775,854 -536,833 -623,1911 -119,2848 392,728 2247,4473 2450,4770z"
   id="path64" />
  
 <g
   id="g373"
   transform="matrix(179.54262,0,0,179.54262,1115.6808,1354.2069)"><g
     id="g322" /><g
     id="g324" /><g
     id="g326" /><g
     id="g328" /><g
     id="g330" /><g
     id="g332" /><g
     id="g334" /><g
     id="g336" /><g
     id="g338" /><g
     id="g340" /><g
     id="g342" /><g
     id="g344" /><g
     id="g346" /><g
     id="g348" /><g
     id="g350" /><g
     id="g1500"
     transform="matrix(0.0586975,0,0,0.0586975,-18.119616,-5.9058507)"
     style="clip-rule:evenodd;fill:#ffffff;fill-opacity:1;fill-rule:evenodd;image-rendering:optimizeQuality;shape-rendering:geometricPrecision;text-rendering:geometricPrecision"><circle
       style="fill:#ffffff;fill-opacity:1;stroke-width:2.24449"
       id="path6308"
       cx="494.30054"
       cy="273.78363"
       r="202.73329" /></g></g><path
   d="m 3724.8993,2257.1834 -345.5443,345.5443 c -354.2099,-70.2733 -1772.6747,-408.7767 -1791.2247,-385.6231 -20.7164,25.9971 -28.0281,43.8701 -69.5963,95.8642 409.1829,309.9337 826.0838,606.1919 1236.3499,914.2301 l -521.9723,521.9722 -727.5115,45.3596 v 0 l 639.5006,370.8642 358.9491,627.5855 v 0 l 45.0886,-725.0744 c 170.7412,-169.2517 342.7009,-337.4203 514.2544,-505.8596 311.4232,414.3283 610.6602,835.562 923.7082,1248.9423 51.9941,-41.7036 69.8671,-48.8799 95.8641,-69.7317 23.4244,-18.6854 -325.9111,-1480.8848 -388.6019,-1806.6605 117.6638,-119.5594 234.2444,-240.0666 349.3356,-362.1987 613.0973,-649.7912 350.4187,-984.3679 -318.5995,-315.2144 z"
   style="clip-rule:evenodd;fill:#17a2b8;fill-opacity:1;fill-rule:evenodd;stroke-width:135.401;image-rendering:optimizeQuality;shape-rendering:geometricPrecision;text-rendering:geometricPrecision"
   id="path320" /></g>
</svg>
