<?xml version="1.0" encoding="UTF-8"?>
<!DOCTYPE svg PUBLIC "-//W3C//DTD SVG 1.1//EN" "http://www.w3.org/Graphics/SVG/1.1/DTD/svg11.dtd">
<!-- Creator: CorelDRAW X6 -->
<svg xmlns="http://www.w3.org/2000/svg" xml:space="preserve" width="75.3352mm" height="118.025mm" version="1.1" style="shape-rendering:geometricPrecision; text-rendering:geometricPrecision; image-rendering:optimizeQuality; fill-rule:evenodd; clip-rule:evenodd"
viewBox="0 0 6142 9623"
 xmlns:xlink="http://www.w3.org/1999/xlink">
 <defs>
  <style type="text/css">
   <![CDATA[
    .fil0 {fill:#8E1620}
    .fil1 {fill:#DC3545}
   ]]>
  </style>
 </defs>
 <g id="Camada_x0020_1">
  <metadata id="CorelCorpID_0Corel-Layer"/>
  <path class="fil0" d="M2927 9623l288 0c59,-254 771,-1587 944,-1936 69,-140 129,-234 200,-376l496 -968c37,-74 59,-119 96,-192l592 -1160c398,-796 600,-1041 600,-2016 0,-1032 -539,-1853 -1227,-2372 -409,-309 -1020,-603 -1556,-603 -756,0 -1284,33 -1920,456 -928,617 -1316,1379 -1436,2428 -14,124 53,779 75,878 72,336 162,444 272,712 114,277 486,943 650,1270l1623 3200c82,164 300,482 304,680z"/>
  <path class="fil1" d="M3077 9157l1218 -2366c207,-400 398,-784 609,-1190 207,-397 409,-783 609,-1190 247,-502 353,-811 336,-1459 -16,-571 -165,-982 -420,-1374 -275,-424 -483,-622 -908,-893 -1232,-784 -2961,-411 -3775,854 -536,833 -623,1911 -119,2848 392,728 2247,4473 2450,4770z"/>
  <path class="fil0" d="M2856 1623c-661,117 -1241,720 -1096,1536 114,641 756,1204 1549,1062 650,-116 1216,-723 1087,-1514 -106,-651 -750,-1224 -1539,-1084z"/>
 </g>
</svg>
